<?xml version="1.0" encoding="UTF-8" standalone="no"?>
<!-- Created with Inkscape (http://www.inkscape.org/) -->
<svg
   xmlns:dc="http://purl.org/dc/elements/1.1/"
   xmlns:cc="http://creativecommons.org/ns#"
   xmlns:rdf="http://www.w3.org/1999/02/22-rdf-syntax-ns#"
   xmlns:svg="http://www.w3.org/2000/svg"
   xmlns="http://www.w3.org/2000/svg"
   xmlns:sodipodi="http://sodipodi.sourceforge.net/DTD/sodipodi-0.dtd"
   xmlns:inkscape="http://www.inkscape.org/namespaces/inkscape"
   width="744.09448819"
   height="1052.3622047"
   id="svg2"
   sodipodi:version="0.32"
   inkscape:version="0.46"
   sodipodi:docname="bersaglio.svg"
   inkscape:output_extension="org.inkscape.output.svg.inkscape">
  <defs
     id="defs4">
    <inkscape:perspective
       sodipodi:type="inkscape:persp3d"
       inkscape:vp_x="0 : 526.18109 : 1"
       inkscape:vp_y="0 : 1000 : 0"
       inkscape:vp_z="744.09448 : 526.18109 : 1"
       inkscape:persp3d-origin="372.04724 : 350.78739 : 1"
       id="perspective10" />
  </defs>
  <sodipodi:namedview
     id="base"
     pagecolor="#ffffff"
     bordercolor="#666666"
     borderopacity="1.0"
     gridtolerance="10000"
     guidetolerance="10"
     objecttolerance="10"
     inkscape:pageopacity="0.0"
     inkscape:pageshadow="2"
     inkscape:zoom="1.4"
     inkscape:cx="352.73671"
     inkscape:cy="799.92316"
     inkscape:document-units="px"
     inkscape:current-layer="layer1"
     showgrid="false"
     showguides="true"
     inkscape:guide-bbox="true"
     inkscape:window-width="838"
     inkscape:window-height="844"
     inkscape:window-x="230"
     inkscape:window-y="0">
    <sodipodi:guide
       orientation="1,0"
       position="358.57143,987.85714"
       id="guide2395" />
    <sodipodi:guide
       orientation="0,1"
       position="438.57143,320"
       id="guide2397" />
    <sodipodi:guide
       orientation="0,1"
       position="144.28571,770"
       id="guide2439" />
  </sodipodi:namedview>
  <metadata
     id="metadata7">
    <rdf:RDF>
      <cc:Work
         rdf:about="">
        <dc:format>image/svg+xml</dc:format>
        <dc:type
           rdf:resource="http://purl.org/dc/dcmitype/StillImage" />
      </cc:Work>
    </rdf:RDF>
  </metadata>
  <g
     inkscape:label="Layer 1"
     inkscape:groupmode="layer"
     id="layer1">
    <path
       sodipodi:type="arc"
       style="fill:#ff0000"
       id="path2391"
       sodipodi:cx="403.57144"
       sodipodi:cy="446.64789"
       sodipodi:rx="70.714287"
       sodipodi:ry="71.428574"
       d="M 474.28573,446.64789 A 70.714287,71.428574 0 1 1 332.85715,446.64789 A 70.714287,71.428574 0 1 1 474.28573,446.64789 z"
       transform="matrix(1.9797979,0,0,1.9599999,-440.41847,-591.63908)" />
    <path
       sodipodi:type="arc"
       style="fill:#000000"
       id="path2389"
       sodipodi:cx="374.28571"
       sodipodi:cy="215.93361"
       sodipodi:rx="60"
       sodipodi:ry="56.42857"
       d="M 434.28571,215.93361 A 60,56.42857 0 1 1 314.28571,215.93361 A 60,56.42857 0 1 1 434.28571,215.93361 z"
       transform="matrix(2,0,0,2.1265823,-389.99999,-176.83842)" />
    <path
       sodipodi:type="arc"
       style="fill:#ff0000"
       id="path2393"
       sodipodi:cx="148.57143"
       sodipodi:cy="128.79076"
       sodipodi:rx="70"
       sodipodi:ry="66.428574"
       d="M 218.57143,128.79076 A 70,66.428574 0 1 1 78.571426,128.79076 A 70,66.428574 0 1 1 218.57143,128.79076 z"
       transform="matrix(0.8571429,0,0,0.9032258,232.65306,167.46363)" />
    <path
       sodipodi:type="arc"
       style="fill:#008000"
       id="path2387"
       sodipodi:cx="140"
       sodipodi:cy="344.50504"
       sodipodi:rx="21.428572"
       sodipodi:ry="20.714285"
       d="M 161.42857,344.50504 A 21.428572,20.714285 0 1 1 118.57143,344.50504 A 21.428572,20.714285 0 1 1 161.42857,344.50504 z"
       transform="matrix(0.9333333,0,0,0.9655173,229.33334,-48.834819)" />
    <path
       sodipodi:type="arc"
       style="fill:#ff0000"
       id="path2383"
       sodipodi:cx="430.71429"
       sodipodi:cy="520.2193"
       sodipodi:rx="102.14286"
       sodipodi:ry="99.285713"
       d="M 532.85715,520.2193 A 102.14286,99.285713 0 1 1 328.57143,520.2193 A 102.14286,99.285713 0 1 1 532.85715,520.2193 z"
       transform="matrix(9.7902095e-2,0,0,0.1007194,317.83217,229.96601)" />
  </g>
</svg>
